<?xml version="1.0" encoding="iso-8859-1"?>
<!-- Generator: Adobe Illustrator 19.0.0, SVG Export Plug-In . SVG Version: 6.00 Build 0)  -->
<svg version="1.1" id="Capa_1" xmlns="http://www.w3.org/2000/svg" xmlns:xlink="http://www.w3.org/1999/xlink" x="0px" y="0px"
	 viewBox="0 0 479.924 479.924" style="enable-background:new 0 0 479.924 479.924;" xml:space="preserve">
<circle style="fill:#78B9EB;" cx="231.991" cy="328" r="112"/>
<g>
	<path style="fill:#1E81CE;" d="M396.791,131.784C381.287,62.867,312.85,19.567,243.933,35.071
		C209.045,42.92,179.037,65.015,161.183,96h-1.192c-50.189,0.125-93.158,36.006-102.232,85.368
		c-45.636,16.715-69.082,67.26-52.367,112.897C18.089,328.93,51.073,351.986,87.991,352h8v-16h-8
		c-39.764-0.018-71.985-32.269-71.967-72.033c0.015-31.728,20.796-59.706,51.167-68.887c3.006-0.917,5.196-3.508,5.6-6.624
		c5.841-43.714,43.097-76.38,87.2-76.456c1.216,0,2.4,0.088,3.616,0.168l1.696,0.104c3.124,0.152,6.057-1.507,7.536-4.264
		c28.665-54.758,96.293-75.911,151.051-47.246c30.533,15.983,51.998,45.143,58.189,79.046c0.575,3.189,3.017,5.716,6.184,6.4
		c51.8,11.305,84.627,62.462,73.322,114.262c-9.608,44.021-48.537,75.437-93.594,75.53v16
		c61.856-0.037,111.97-50.211,111.933-112.067C479.894,189.219,445.791,144.854,396.791,131.784L396.791,131.784z"/>
	<path style="fill:#1E81CE;" d="M231.991,208c-66.274,0-120,53.726-120,120s53.726,120,120,120s120-53.726,120-120
		C351.916,261.756,298.234,208.074,231.991,208z M231.991,432c-57.438,0-104-46.562-104-104s46.562-104,104-104s104,46.562,104,104
		C335.925,385.41,289.401,431.933,231.991,432z"/>
	<path style="fill:#1E81CE;" d="M271.591,277.088l-39.6,39.6l-39.6-39.6L181.079,288.4l39.6,39.6l-39.6,39.6l11.312,11.312
		l39.6-39.6l39.6,39.6l11.312-11.312l-39.6-39.6l39.6-39.6L271.591,277.088z"/>
</g>
<g>
</g>
<g>
</g>
<g>
</g>
<g>
</g>
<g>
</g>
<g>
</g>
<g>
</g>
<g>
</g>
<g>
</g>
<g>
</g>
<g>
</g>
<g>
</g>
<g>
</g>
<g>
</g>
<g>
</g>
</svg>
